<svg xmlns="http://www.w3.org/2000/svg" xmlns:xlink="http://www.w3.org/1999/xlink" width="500" zoomAndPan="magnify" viewBox="0 0 375 374.999991" height="500" preserveAspectRatio="xMidYMid meet" version="1.0"><defs><clipPath id="5b92a7e31f"><path d="M 108 86.78125 L 277 86.78125 L 277 235 L 108 235 Z M 108 86.78125 " clip-rule="nonzero"/></clipPath></defs><g clip-path="url(#5b92a7e31f)"><path fill="#2bd984" d="M 164.019531 154.609375 C 173.390625 157.496094 184.5 164.804688 196.109375 172.730469 C 195.269531 169.34375 194.429688 166.070312 193.558594 162.902344 C 192.691406 159.75 191.421875 156.894531 189.832031 154.417969 C 188.269531 151.941406 186.132812 150 183.480469 148.523438 C 180.859375 147.039062 177.398438 146.316406 173.167969 146.316406 L 158.863281 146.316406 L 158.863281 153.285156 C 160.527344 153.609375 162.28125 154.066406 164.019531 154.609375 Z M 196.226562 172.789062 C 218.117188 187.742188 241.75 204.757812 258.792969 198.101562 C 292.015625 185.078125 262.402344 132.480469 244.371094 154.183594 C 242.277344 162.933594 236.222656 163.390625 232.261719 160.578125 C 228.152344 157.601562 227.8125 150.261719 234.664062 147.449219 C 251.296875 140.671875 266.101562 149.203125 272.730469 161.753906 C 278.667969 172.953125 278.402344 187.210938 269.003906 195.625 C 256.671875 206.703125 242.277344 203.535156 229.34375 197.230469 L 229.34375 212.539062 L 121.589844 212.539062 L 121.589844 210.0625 L 141.199219 210.0625 L 141.199219 159.707031 C 146.753906 159.292969 152.808594 160.429688 158.863281 162.402344 L 158.863281 210.0625 L 192.246094 210.0625 C 198.714844 210.0625 204.121094 208.691406 208.425781 205.90625 C 212.726562 203.125 216.230469 199.851562 218.929688 196.007812 C 219.695312 194.945312 220.417969 193.84375 221.0625 192.691406 C 220.34375 192.28125 219.621094 191.824219 218.898438 191.394531 C 184.410156 170.34375 134.820312 131.375 114.609375 176.855469 C 101.480469 206.421875 125.644531 237.90625 150.394531 228.726562 C 152.792969 227.859375 154.960938 226.328125 156.859375 223.894531 C 159.070312 212.699219 166.714844 211.785156 171.886719 215.175781 C 177.222656 218.710938 178.089844 228.226562 169.457031 231.882812 C 160.324219 235.769531 146.28125 235.535156 134.777344 231.835938 C 95.457031 219.195312 102.113281 158.765625 141.214844 152.519531 L 141.214844 89.257812 L 121.589844 89.257812 L 121.589844 86.78125 L 222.609375 86.78125 L 222.609375 117.351562 L 220.667969 117.351562 C 219.148438 112.738281 217.515625 108.71875 215.714844 105.242188 C 213.964844 101.777344 211.828125 98.804688 209.367188 96.417969 C 206.890625 93.984375 203.960938 92.1875 200.542969 91.011719 C 197.109375 89.832031 193 89.257812 188.167969 89.257812 L 158.847656 89.257812 L 158.847656 143.839844 L 170.339844 143.839844 C 174.230469 143.839844 177.5 143.5 180.195312 142.78125 C 182.9375 142.058594 185.265625 140.761719 187.195312 138.816406 C 189.140625 136.871094 190.773438 134.207031 192.144531 130.859375 C 193.46875 127.515625 194.8125 123.171875 196.109375 117.882812 L 198.050781 117.882812 L 198.050781 172.804688 L 196.226562 172.804688 Z M 224.085938 186.417969 C 224.394531 185.652344 224.660156 184.855469 224.925781 184.089844 C 226.21875 179.980469 227.015625 176.546875 227.398438 173.851562 L 229.34375 173.851562 L 229.34375 189.230469 C 227.589844 188.363281 225.835938 187.417969 224.085938 186.417969 Z M 224.085938 186.417969 " fill-opacity="1" fill-rule="evenodd"/></g></svg>